<svg id="Capa_1" data-name="Capa 1" xmlns="http://www.w3.org/2000/svg" viewBox="0 0 325.48 325.48"><defs><style>.cls-1{fill:#fff;}.cls-2{fill:#848484;}.cls-3{fill:#f3e600;}.cls-4{font-size:25.04px;fill:#1d1d1b;font-family:CenturyGothic, Century Gothic;}</style></defs><title>logoConNombre</title><circle class="cls-1" cx="162.74" cy="162.74" r="162.74"/><path d="M174.57,208.28c14.8-25.76,56.55-29.55,93.25-8.46a102.94,102.94,0,0,1,28.37,23.74A100.13,100.13,0,0,0,263,193.38c-36.7-21.09-78.45-17.3-93.25,8.46-10.19,17.74-4.95,41.26,11.28,61.08C168.68,244.61,165.46,224.13,174.57,208.28Z" transform="translate(-145.72 -41.61)"/><path class="cls-2" d="M290.2,226.1c8.12,14.64,9.61,30.28,2.48,42.69-13,22.58-49.57,25.9-81.74,7.42a88.22,88.22,0,0,1-28.39-25.47c6.66,12,17.78,23.34,32.28,31.67,32.17,18.48,68.77,15.16,81.74-7.42C304.71,260.81,301.61,242.41,290.2,226.1Z" transform="translate(-145.72 -41.61)"/><path d="M430.24,267.63c-15.93,25.08-57.81,27-93.53,4.32a102.94,102.94,0,0,1-27.29-25,100.13,100.13,0,0,0,31.8,31.62c35.73,22.69,77.61,20.76,93.53-4.32,11-17.27,6.77-41-8.56-61.52C437.73,231.6,440,252.2,430.24,267.63Z" transform="translate(-145.72 -41.61)"/><path class="cls-2" d="M315.51,244.71c-7.46-15-8.26-30.67-.59-42.75,14-22,50.67-23.68,82-3.79a88.22,88.22,0,0,1,27.24,26.7c-6.12-12.29-16.73-24.11-30.84-33.07-31.32-19.89-68-18.2-82,3.79C302.55,209.39,304.84,227.91,315.51,244.71Z" transform="translate(-145.72 -41.61)"/><path class="cls-3" d="M383.5,91.54c5.12.73,10.24,1.55,15.33,2.58a99.11,99.11,0,0,1,15.08,4.16,21.05,21.05,0,0,1,7.07,4.11,7.17,7.17,0,0,1,1.38,1.9,5,5,0,0,1,.48,2.55A7.21,7.21,0,0,1,420.7,111a27.74,27.74,0,0,1-6.65,4.79,79,79,0,0,1-7.13,3.44c-9.67,4.08-19.58,7.22-29.47,10.33s-19.87,5.88-29.79,8.79-19.83,5.79-29.6,9a235.62,235.62,0,0,0-28.52,10.9,66.47,66.47,0,0,0-6.46,3.54,25,25,0,0,0-5.27,4.24,7.41,7.41,0,0,0-1.43,2.21,2.91,2.91,0,0,0-.14,1.8c.25,1.2,1.61,2.83,3.37,4.17a36.69,36.69,0,0,0,6,3.66c2.18,1.09,4.48,2.07,6.81,3,4.67,1.83,9.51,3.41,14.4,4.85,2.45.72,4.91,1.4,7.39,2.06l7.52,2.05q7.51,2.1,15,4.41a210.51,210.51,0,0,1,29.44,11.21,71,71,0,0,1,7.09,4,27.4,27.4,0,0,1,6.64,5.71,10.37,10.37,0,0,1,2.25,5,7.67,7.67,0,0,1-.24,3.17,8.73,8.73,0,0,1-1.31,2.66,14,14,0,0,1-3.62,3.35,27.25,27.25,0,0,1-3.82,2.09,52.92,52.92,0,0,1-7.72,2.74c-2.58.72-5.17,1.31-7.76,1.83-5.18,1-10.37,1.78-15.56,2.38-10.38,1.19-20.78,1.81-31.17,2s-20.78.17-31.15-.31-20.73-1.24-31-2.68c-5.14-.72-10.27-1.56-15.33-2.76a77.2,77.2,0,0,1-7.49-2.15,25.24,25.24,0,0,1-7-3.45,25,25,0,0,0,7.1,3,76.48,76.48,0,0,0,7.54,1.66c5.08.88,10.2,1.48,15.34,1.91,10.28.84,20.59,1.23,30.9,1.25a454.25,454.25,0,0,0,61.58-3.69c5.07-.71,10.11-1.57,15.05-2.68A72,72,0,0,0,370.64,226a21.36,21.36,0,0,0,3-1.67,8.13,8.13,0,0,0,2-1.89,1.93,1.93,0,0,0,.42-1.48,4.45,4.45,0,0,0-1-2,21.74,21.74,0,0,0-5.18-4.23,64.83,64.83,0,0,0-6.5-3.51c-4.52-2.15-9.26-4-14.06-5.71s-9.67-3.32-14.57-4.82-9.84-2.92-14.8-4.28l-7.46-2c-2.52-.66-5.05-1.34-7.57-2.07-5-1.46-10.06-3-15-5-2.48-1-4.94-2-7.38-3.28a43.32,43.32,0,0,1-7.17-4.44,21.17,21.17,0,0,1-3.33-3.23,12.16,12.16,0,0,1-2.45-4.79,9.83,9.83,0,0,1,.42-5.82,14.1,14.1,0,0,1,2.71-4.3,31.43,31.43,0,0,1,6.77-5.46,73.07,73.07,0,0,1,7.15-3.88,150,150,0,0,1,14.68-6c4.94-1.75,9.9-3.35,14.88-4.87,10-3,20-5.81,30-8.42s20-5.21,30-7.94,19.91-5.45,29.46-9.05c2.38-.92,4.73-1.87,7-3a25.1,25.1,0,0,0,6.11-3.92,4.64,4.64,0,0,0,1.54-2.48,3.1,3.1,0,0,0-1-2.49,19.91,19.91,0,0,0-6.09-3.92,97.7,97.7,0,0,0-14.54-5C393.59,93.83,388.56,92.64,383.5,91.54Z" transform="translate(-145.72 -41.61)"/><text class="cls-4" transform="translate(57.9 284.39)">BikeKing’s e-Shop</text></svg>